# xmcd
#
# Track frame offsets:
#	150
#	19949
#	40068
#	62420
#	82380
#	102890
#	126237
#	149209
#	170000
#	190275
#	212646
#	248499
#
# Disc length: 3491 seconds
#
# Revision: 3
# Processed by: cddbd v1.5.1PL0 Copyright (c) Steve Scherf et al.
# Submitted via: EasyCDDAExtractor 7.0.5.4
#
DISCID=b00da10c
DTITLE=Foo Fighters - One By One
DYEAR=2002
DGENRE=Grunge
TTITLE0=All My Life
TTITLE1=Low
TTITLE2=Have It All
TTITLE3=Times Like These (One-Way Motorway)
TTITLE4=Disenchanted Lullabye
TTITLE5=Tired
TTITLE6=Halo
TTITLE7=Lonely As You
TTITLE8=Overdrive
TTITLE9=Burn Away
TTITLE10=Come Back
TTITLE11=Danny Says
EXTD=YEAR: 2002 ID3G: 6
EXTT0=
EXTT1=
EXTT2=
EXTT3=
EXTT4=
EXTT5=
EXTT6=
EXTT7=
EXTT8=
EXTT9=
EXTT10=
EXTT11=
PLAYORDER=
